<svg width="56" height="56" viewBox="0 0 56 56" fill="none" xmlns="http://www.w3.org/2000/svg">
<path d="M0 8C0 3.58172 3.58172 0 8 0H48C52.4183 0 56 3.58172 56 8V48C56 52.4183 52.4183 56 48 56H8C3.58172 56 0 52.4183 0 48V8Z" fill="#FFF5ED"/>
<path d="M32.5075 15.6074C32.6575 15.6741 32.793 15.7696 32.9061 15.8886C33.0192 16.0076 33.1078 16.1477 33.1668 16.3009C33.2257 16.4541 33.2539 16.6175 33.2498 16.7816C33.2456 16.9457 33.2091 17.1074 33.1425 17.2574L23.1425 39.7574C23.0079 40.0605 22.7584 40.2976 22.449 40.4167C22.1395 40.5358 21.7955 40.527 21.4925 40.3924C21.1895 40.2578 20.9523 40.0084 20.8332 39.699C20.7142 39.3895 20.7229 39.0455 20.8575 38.7424L30.8575 16.2424C30.9241 16.0924 31.0196 15.9569 31.1386 15.8438C31.2576 15.7307 31.3977 15.6421 31.5509 15.5832C31.7042 15.5242 31.8675 15.496 32.0316 15.5002C32.1957 15.5043 32.3574 15.5408 32.5075 15.6074ZM18.8325 21.4399C18.9549 21.5493 19.0547 21.6816 19.126 21.8295C19.1973 21.9774 19.2387 22.1378 19.248 22.3017C19.2573 22.4656 19.2342 22.6298 19.1801 22.7847C19.1259 22.9397 19.0418 23.0825 18.9325 23.2049L14.675 27.9999L18.9375 32.7949C19.0465 32.9177 19.1302 33.0608 19.1839 33.2159C19.2376 33.3711 19.2603 33.5353 19.2505 33.6992C19.2408 33.8631 19.1988 34.0235 19.1271 34.1711C19.0554 34.3188 18.9553 34.4509 18.8325 34.5599C18.7097 34.6689 18.5666 34.7527 18.4115 34.8064C18.2563 34.8601 18.0921 34.8827 17.9282 34.873C17.7643 34.8632 17.604 34.8213 17.4563 34.7496C17.3086 34.6778 17.1765 34.5777 17.0675 34.4549L12.0675 28.8299C11.8643 28.6012 11.7521 28.3059 11.7521 27.9999C11.7521 27.694 11.8643 27.3987 12.0675 27.1699L17.0675 21.5449C17.1764 21.4221 17.3086 21.322 17.4562 21.2502C17.6039 21.1785 17.7643 21.1366 17.9282 21.1268C18.0921 21.1171 18.2563 21.1397 18.4115 21.1934C18.5667 21.2471 18.7097 21.3309 18.8325 21.4399ZM37.17 21.4399C37.2927 21.3309 37.4358 21.2471 37.5909 21.1934C37.7461 21.1397 37.9103 21.1171 38.0742 21.1268C38.2381 21.1366 38.3985 21.1785 38.5462 21.2502C38.6939 21.322 38.826 21.4221 38.935 21.5449L43.935 27.1699C44.1381 27.3987 44.2503 27.694 44.2503 27.9999C44.2503 28.3059 44.1381 28.6012 43.935 28.8299L38.935 34.4549C38.826 34.5777 38.6939 34.6778 38.5462 34.7496C38.3985 34.8213 38.2381 34.8632 38.0742 34.873C37.9103 34.8827 37.7461 34.8601 37.591 34.8064C37.4358 34.7527 37.2928 34.6689 37.17 34.5599C37.0472 34.4509 36.9471 34.3188 36.8753 34.1711C36.8036 34.0235 36.7617 33.8631 36.7519 33.6992C36.7422 33.5353 36.7648 33.3711 36.8185 33.2159C36.8722 33.0608 36.956 32.9177 37.065 32.7949L41.3275 27.9999L37.065 23.2049C36.9559 23.0822 36.8722 22.9391 36.8184 22.784C36.7647 22.6288 36.7421 22.4646 36.7518 22.3007C36.7616 22.1368 36.8035 21.9764 36.8753 21.8287C36.947 21.681 37.0472 21.5489 37.17 21.4399Z" fill="#FF7E35"/>
</svg>
